<svg xmlns="http://www.w3.org/2000/svg" xmlns:xlink="http://www.w3.org/1999/xlink" width="260" zoomAndPan="magnify" viewBox="0 0 194.87999 149.999998" height="200" preserveAspectRatio="xMidYMid meet" version="1.0"><defs><clipPath id="124bb4d04e"><path d="M 20.335938 11.296875 L 174 11.296875 L 174 138.714844 L 20.335938 138.714844 Z M 20.335938 11.296875 " clip-rule="nonzero"/></clipPath><clipPath id="da1b5dd98f"><path d="M 38.207031 26.128906 L 156.636719 26.128906 L 156.636719 129.566406 L 38.207031 129.566406 Z M 38.207031 26.128906 " clip-rule="nonzero"/></clipPath><clipPath id="2cd5eb69bf"><path d="M 86.925781 45.25 L 107.914062 45.25 L 107.914062 122.449219 L 86.925781 122.449219 Z M 86.925781 45.25 " clip-rule="nonzero"/></clipPath><clipPath id="dc8be9dd32"><path d="M 88 45.25 L 107 45.25 L 107 122.449219 L 88 122.449219 Z M 88 45.25 " clip-rule="nonzero"/></clipPath></defs><path fill="#ee7711" d="M 96.671875 33.179688 L 150.324219 122.90625 L 44.027344 123.25 Z M 96.671875 33.179688 " fill-opacity="1" fill-rule="nonzero"/><g clip-path="url(#124bb4d04e)"><path fill="#ee7711" d="M 96.992188 11.464844 C 94.371094 11.296875 91.6875 12.53125 90.007812 14.75 L 20.863281 130.5625 C 20.398438 132.3125 20.378906 133.429688 20.796875 135.078125 C 21.195312 136.652344 22.75 138.277344 24.234375 138.667969 L 168.234375 138.710938 C 169.136719 138.550781 170.375 138.128906 170.984375 137.773438 C 173.203125 136.492188 174.703125 133.078125 173.132812 130.488281 L 103.132812 14.964844 C 102.109375 13.277344 100.046875 12.058594 98.113281 11.628906 C 97.746094 11.546875 97.367188 11.488281 96.992188 11.464844 Z M 96.671875 33.179688 L 150.324219 122.90625 L 44.03125 123.25 Z M 96.671875 33.179688 " fill-opacity="1" fill-rule="nonzero"/></g><path fill="#ffffff" d="M 94.761719 117.066406 C 92.332031 115.90625 90.484375 113.117188 90.484375 110.617188 C 90.484375 105.957031 95.363281 102.449219 99.980469 103.789062 C 103.097656 104.691406 105.214844 107.492188 105.1875 110.679688 C 105.164062 113.390625 103.992188 115.382812 101.589844 116.785156 C 99.753906 117.859375 96.683594 117.984375 94.761719 117.066406 Z M 95.3125 98.671875 C 95.007812 98.507812 94.292969 97.925781 93.722656 97.386719 C 91.730469 95.492188 91.734375 95.511719 90.4375 75.265625 C 89.28125 57.273438 89.273438 56.992188 89.769531 55.699219 C 90.882812 52.792969 93.363281 51.519531 97.496094 51.734375 C 100.125 51.871094 102.148438 52.792969 103.460938 54.449219 C 104.585938 55.863281 104.832031 56.660156 104.828125 58.921875 C 104.828125 61.375 103.257812 91.476562 103.03125 93.324219 C 102.738281 95.738281 101.324219 97.699219 99.253906 98.5625 C 98.066406 99.058594 96.113281 99.109375 95.3125 98.671875 Z M 95.3125 98.671875 " fill-opacity="1" fill-rule="nonzero"/><g clip-path="url(#da1b5dd98f)"><path fill="#ee7711" d="M 97.421875 26.128906 L 156.628906 129.566406 L 38.210938 129.566406 L 97.421875 26.128906 " fill-opacity="1" fill-rule="nonzero"/></g><g clip-path="url(#2cd5eb69bf)"><path fill="#ee7711" d="M 96.601562 23.457031 L 159.113281 128.492188 L 35.269531 128.894531 Z M 96.601562 23.457031 " fill-opacity="1" fill-rule="nonzero"/><path fill="#ee7711" d="M 96.976562 -1.957031 C 93.921875 -2.15625 90.796875 -0.710938 88.839844 1.886719 L 8.28125 137.457031 C 7.738281 139.507812 7.71875 140.8125 8.203125 142.738281 C 8.664062 144.582031 10.476562 146.484375 12.210938 146.945312 L 179.976562 146.996094 C 181.027344 146.804688 182.472656 146.308594 183.183594 145.898438 C 185.765625 144.398438 187.515625 140.402344 185.683594 137.367188 L 104.128906 2.136719 C 102.9375 0.160156 100.535156 -1.261719 98.285156 -1.769531 C 97.855469 -1.863281 97.414062 -1.929688 96.976562 -1.960938 Z M 96.605469 23.457031 L 159.113281 128.492188 L 35.273438 128.894531 Z M 96.605469 23.457031 " fill-opacity="1" fill-rule="nonzero"/></g><g clip-path="url(#dc8be9dd32)"><path fill="#ffffff" d="M 94.375 121.65625 C 91.546875 120.296875 89.394531 117.035156 89.394531 114.105469 C 89.394531 108.652344 95.078125 104.546875 100.457031 106.113281 C 104.089844 107.167969 106.554688 110.453125 106.523438 114.183594 C 106.5 117.351562 105.128906 119.6875 102.335938 121.328125 C 100.195312 122.585938 96.617188 122.730469 94.375 121.65625 Z M 95.019531 100.125 C 94.664062 99.929688 93.832031 99.253906 93.167969 98.617188 C 90.847656 96.402344 90.851562 96.421875 89.339844 72.726562 C 87.992188 51.664062 87.984375 51.335938 88.558594 49.820312 C 89.855469 46.417969 92.75 44.925781 97.5625 45.179688 C 100.625 45.339844 102.984375 46.417969 104.515625 48.355469 C 105.824219 50.011719 106.109375 50.945312 106.105469 53.589844 C 106.105469 56.464844 104.273438 91.703125 104.011719 93.863281 C 103.671875 96.691406 102.023438 98.988281 99.609375 100 C 98.230469 100.574219 95.953125 100.640625 95.019531 100.125 Z M 95.019531 100.125 " fill-opacity="1" fill-rule="nonzero"/></g></svg>