<svg xmlns="http://www.w3.org/2000/svg" xmlns:xlink="http://www.w3.org/1999/xlink" width="260" viewBox="0 0 194.87999 149.999998" height="200" preserveAspectRatio="xMidYMid meet"><defs><clipPath id="e4f8bf5940"><path d="M 25 11.296875 L 168 11.296875 L 168 138.714844 L 25 138.714844 Z M 25 11.296875 " clip-rule="nonzero"></path></clipPath></defs><g clip-path="url(#e4f8bf5940)"><path fill="#ffffff" d="M 82.929688 11.296875 C 51.265625 11.296875 25.5 37.019531 25.5 68.632812 C 25.5 98.011719 47.757812 122.277344 76.3125 125.5625 C 76.683594 124.601562 76.980469 123.617188 77.507812 122.714844 L 79.425781 119.429688 L 111.058594 65.273438 C 114.160156 59.96875 119.703125 56.632812 125.765625 56.03125 C 126.386719 55.964844 126.980469 55.792969 127.609375 55.792969 C 129.035156 55.792969 130.414062 56.027344 131.773438 56.339844 C 134.671875 57.042969 137.371094 58.378906 139.675781 60.273438 C 135.605469 32.617188 111.746094 11.296875 82.929688 11.296875 Z M 82.929688 36.78125 C 86.453125 36.78125 89.3125 39.632812 89.3125 43.148438 L 89.3125 68.632812 C 89.3125 70.324219 88.640625 71.941406 87.441406 73.140625 L 72.808594 87.746094 C 70.320312 90.234375 66.273438 90.234375 63.785156 87.746094 C 61.296875 85.261719 61.296875 81.222656 63.785156 78.738281 L 76.546875 65.996094 L 76.546875 43.148438 C 76.546875 39.632812 79.40625 36.78125 82.929688 36.78125 Z M 127.597656 68.535156 C 125.457031 68.535156 123.320312 69.585938 122.089844 71.695312 L 88.527344 129.136719 C 86.042969 133.382812 89.109375 138.714844 94.035156 138.714844 L 161.160156 138.714844 C 166.085938 138.714844 169.152344 133.382812 166.671875 129.136719 L 133.105469 71.695312 C 131.875 69.585938 129.738281 68.535156 127.597656 68.535156 Z M 127.597656 87.746094 C 131.121094 87.746094 133.980469 90.601562 133.980469 94.117188 L 133.980469 106.859375 C 133.980469 110.378906 131.121094 113.230469 127.597656 113.230469 C 124.074219 113.230469 121.21875 110.378906 121.21875 106.859375 L 121.21875 94.117188 C 121.21875 90.601562 124.074219 87.746094 127.597656 87.746094 Z M 127.597656 119.601562 C 131.121094 119.601562 133.980469 122.457031 133.980469 125.972656 C 133.980469 129.492188 131.121094 132.34375 127.597656 132.34375 C 124.074219 132.34375 121.21875 129.492188 121.21875 125.972656 C 121.21875 122.457031 124.074219 119.601562 127.597656 119.601562 Z M 127.597656 119.601562 " fill-opacity="1" fill-rule="nonzero"></path></g></svg>