<svg xmlns="http://www.w3.org/2000/svg" xmlns:xlink="http://www.w3.org/1999/xlink" width="260" viewBox="0 0 194.87999 149.999998" height="200" preserveAspectRatio="xMidYMid meet"><defs><clipPath id="e3db77cc90"><path d="M 1.28125 12 L 193.910156 12 L 193.910156 138.714844 L 1.28125 138.714844 Z M 1.28125 12 " clip-rule="nonzero"></path></clipPath></defs><g clip-path="url(#e3db77cc90)"><path fill="#ffffff" d="M 163.363281 111.003906 C 168.480469 102.003906 171.339844 91.804688 171.339844 81.304688 C 171.339844 48.308594 144.398438 21.3125 111.292969 21.3125 C 82.699219 21.3125 58.769531 41.257812 52.75 68.105469 C 52.449219 66.757812 51.996094 65.257812 51.695312 63.757812 C 47.933594 46.808594 38.453125 41.410156 30.929688 39.910156 C 30.625 39.910156 30.476562 39.910156 30.175781 39.757812 C 32.132812 26.109375 29.273438 17.410156 29.121094 17.113281 C 29.121094 16.960938 29.121094 16.960938 28.972656 16.960938 C 27.464844 13.363281 23.253906 11.5625 19.339844 12.914062 C 17.382812 13.511719 15.726562 15.011719 14.824219 16.8125 C 14.074219 18.460938 14.074219 20.410156 14.675781 22.0625 C 15.277344 23.5625 17.082031 24.3125 18.585938 23.710938 C 20.09375 23.109375 20.84375 21.3125 20.242188 19.8125 C 20.242188 19.660156 20.09375 19.511719 20.242188 19.363281 C 20.394531 19.0625 20.695312 18.761719 21.144531 18.613281 C 22.046875 18.3125 23.101562 18.613281 23.402344 19.210938 C 23.703125 20.261719 25.8125 27.910156 24.003906 39.609375 C 23.554688 39.609375 23.253906 39.609375 22.800781 39.609375 C 22.199219 34.660156 21.144531 31.808594 20.996094 31.511719 C 20.996094 31.511719 20.996094 31.359375 20.84375 31.359375 C 19.1875 28.210938 15.125 26.710938 11.363281 27.910156 C 9.40625 28.660156 7.75 30.011719 7 31.808594 C 6.246094 33.460938 6.398438 35.261719 7.148438 36.757812 C 7.902344 38.257812 9.707031 38.859375 11.214844 38.109375 C 12.71875 37.359375 13.320312 35.558594 12.566406 34.058594 C 12.566406 33.910156 12.71875 33.609375 13.320312 33.460938 C 14.222656 33.160156 15.125 33.460938 15.425781 33.910156 C 15.726562 34.511719 16.480469 37.058594 16.78125 40.960938 C 14.523438 41.710938 12.265625 42.757812 10.308594 44.109375 C 8.804688 45.160156 1.429688 50.410156 1.28125 56.707031 C 1.28125 58.65625 1.882812 61.355469 5.042969 63.757812 C 8.957031 66.757812 12.867188 67.957031 16.027344 68.855469 C 20.996094 70.355469 22.5 70.804688 22.5 75.90625 C 22.5 93.605469 22.5 130.351562 48.988281 136.949219 C 50.492188 137.398438 54.855469 138.449219 109.183594 138.449219 C 113.699219 138.449219 118.664062 138.449219 123.933594 138.449219 C 141.839844 138.449219 158.847656 138.300781 169.984375 138.148438 C 191.503906 138 191.503906 138 192.40625 137.25 L 193.910156 136.050781 L 193.460938 134.097656 C 193.761719 133.800781 187.289062 112.800781 163.363281 111.003906 Z M 21.746094 56.40625 C 21.144531 57.007812 20.394531 57.308594 19.640625 57.308594 C 17.984375 57.308594 16.632812 55.957031 16.632812 54.308594 C 16.632812 53.558594 16.933594 52.808594 17.535156 52.207031 C 18.136719 51.609375 18.886719 51.308594 19.640625 51.308594 C 21.296875 51.308594 22.652344 52.65625 22.652344 54.308594 C 22.652344 55.058594 22.351562 55.808594 21.746094 56.40625 Z M 153.277344 110.703125 C 143.949219 123.75 128.75 132.300781 111.441406 132.300781 C 85.105469 132.300781 63.285156 112.351562 60.574219 86.855469 C 59.371094 85.054688 58.316406 82.953125 57.113281 80.707031 C 57.566406 51.160156 81.644531 27.3125 111.292969 27.3125 C 141.089844 27.3125 165.320312 51.457031 165.320312 81.304688 C 165.320312 91.804688 162.15625 102.152344 156.4375 110.851562 C 155.386719 110.703125 154.332031 110.703125 153.277344 110.703125 Z M 153.277344 110.703125 " fill-opacity="1" fill-rule="nonzero"></path></g><path fill="#ffffff" d="M 111.441406 36.308594 C 86.609375 36.308594 66.292969 56.558594 66.292969 81.304688 C 66.292969 106.050781 86.609375 126.300781 111.441406 126.300781 C 136.273438 126.300781 156.589844 106.050781 156.589844 81.304688 C 156.589844 56.558594 136.273438 36.308594 111.441406 36.308594 Z M 128.449219 60.15625 L 130.554688 58.058594 C 131.757812 56.859375 133.5625 56.859375 134.769531 58.058594 C 135.972656 59.257812 135.972656 61.058594 134.769531 62.257812 L 132.660156 64.355469 C 132.058594 64.957031 131.308594 65.257812 130.554688 65.257812 C 129.800781 65.257812 129.050781 64.957031 128.449219 64.355469 C 127.242188 63.15625 127.242188 61.207031 128.449219 60.15625 Z M 108.433594 51.308594 C 108.433594 49.660156 109.785156 48.308594 111.441406 48.308594 C 113.097656 48.308594 114.453125 49.660156 114.453125 51.308594 L 114.453125 54.308594 C 114.453125 55.957031 113.097656 57.308594 111.441406 57.308594 C 109.785156 57.308594 108.433594 55.957031 108.433594 54.308594 Z M 87.964844 57.90625 C 89.167969 56.707031 90.976562 56.707031 92.179688 57.90625 L 94.285156 60.007812 C 95.488281 61.207031 95.488281 63.007812 94.285156 64.207031 C 93.683594 64.808594 92.929688 65.105469 92.179688 65.105469 C 91.425781 65.105469 90.671875 64.808594 90.070312 64.207031 L 87.964844 62.105469 C 86.910156 61.058594 86.910156 59.105469 87.964844 57.90625 Z M 84.351562 84.304688 L 81.34375 84.304688 C 79.6875 84.304688 78.332031 82.953125 78.332031 81.304688 C 78.332031 79.65625 79.6875 78.304688 81.34375 78.304688 L 84.351562 78.304688 C 86.007812 78.304688 87.363281 79.65625 87.363281 81.304688 C 87.363281 82.953125 86.007812 84.304688 84.351562 84.304688 Z M 94.4375 102.453125 L 92.328125 104.550781 C 91.726562 105.152344 90.976562 105.453125 90.222656 105.453125 C 89.46875 105.453125 88.71875 105.152344 88.117188 104.550781 C 86.910156 103.351562 86.910156 101.554688 88.117188 100.351562 L 90.222656 98.253906 C 91.425781 97.054688 93.230469 97.054688 94.4375 98.253906 C 95.640625 99.453125 95.640625 101.402344 94.4375 102.453125 Z M 111.441406 85.804688 C 110.085938 85.804688 108.882812 85.203125 108.132812 84.304688 L 96.390625 84.304688 C 94.738281 84.304688 93.382812 82.953125 93.382812 81.304688 C 93.382812 79.65625 94.738281 78.304688 96.390625 78.304688 L 108.132812 78.304688 C 108.882812 77.40625 110.085938 76.804688 111.441406 76.804688 C 114 76.804688 115.957031 78.753906 115.957031 81.304688 C 115.957031 83.855469 114 85.804688 111.441406 85.804688 Z M 134.917969 104.703125 C 134.316406 105.300781 133.5625 105.601562 132.8125 105.601562 C 132.058594 105.601562 131.308594 105.300781 130.703125 104.703125 L 128.597656 102.601562 C 127.394531 101.402344 127.394531 99.601562 128.597656 98.402344 C 129.800781 97.203125 131.609375 97.203125 132.8125 98.402344 L 134.917969 100.503906 C 135.972656 101.554688 135.972656 103.503906 134.917969 104.703125 Z M 141.539062 84.304688 L 138.53125 84.304688 C 136.875 84.304688 135.519531 82.953125 135.519531 81.304688 C 135.519531 79.65625 136.875 78.304688 138.53125 78.304688 L 141.539062 78.304688 C 143.195312 78.304688 144.550781 79.65625 144.550781 81.304688 C 144.550781 82.953125 143.195312 84.304688 141.539062 84.304688 Z M 141.539062 84.304688 " fill-opacity="1" fill-rule="nonzero"></path></svg>