<svg xmlns="http://www.w3.org/2000/svg" xmlns:xlink="http://www.w3.org/1999/xlink" width="260" viewBox="0 0 194.87999 149.999998" height="200" preserveAspectRatio="xMidYMid meet"><defs><clipPath id="4bf8d14c2c"><path d="M 51.476562 11.417969 L 142.921875 11.417969 L 142.921875 42 L 51.476562 42 Z M 51.476562 11.417969 " clip-rule="nonzero"></path></clipPath><clipPath id="75e7aa5f47"><path d="M 55 45 L 139 45 L 139 138.714844 L 55 138.714844 Z M 55 45 " clip-rule="nonzero"></path></clipPath></defs><g clip-path="url(#4bf8d14c2c)"><path fill="#ffffff" d="M 109.089844 28.066406 L 85.328125 28.066406 L 85.328125 20.125 L 109.089844 20.125 Z M 142.894531 34.5 C 142.351562 30.476562 139.59375 28.484375 135.6875 28.390625 C 129.78125 28.25 123.871094 28.355469 117.816406 28.355469 C 116.367188 22.300781 119.878906 14.949219 112.308594 11.417969 L 82.109375 11.417969 C 74.535156 14.949219 78.046875 22.300781 76.601562 28.355469 C 70.546875 28.355469 64.632812 28.25 58.726562 28.390625 C 54.820312 28.484375 52.0625 30.476562 51.519531 34.5 C 51.066406 37.875 54.371094 40.761719 58.710938 41.128906 C 59.652344 41.207031 134.761719 41.207031 135.703125 41.128906 C 140.042969 40.761719 143.351562 37.875 142.894531 34.5 " fill-opacity="1" fill-rule="nonzero"></path></g><g clip-path="url(#75e7aa5f47)"><path fill="#ffffff" d="M 76.324219 53.777344 C 78.765625 53.613281 80.878906 55.460938 81.039062 57.910156 L 85.238281 120.9375 C 85.402344 123.386719 83.554688 125.5 81.109375 125.667969 C 78.667969 125.828125 76.554688 123.976562 76.390625 121.53125 L 72.195312 58.5 C 72.03125 56.054688 73.878906 53.941406 76.324219 53.777344 Z M 93.367188 58.082031 C 93.367188 55.835938 95.046875 54.015625 97.207031 53.71875 C 99.371094 54.015625 101.046875 55.835938 101.046875 58.082031 L 101.046875 121.253906 C 101.046875 123.5 99.371094 125.320312 97.207031 125.613281 C 95.046875 125.320312 93.367188 123.5 93.367188 121.253906 Z M 113.375 57.910156 C 113.539062 55.460938 115.652344 53.613281 118.09375 53.777344 C 120.535156 53.941406 122.382812 56.054688 122.222656 58.5 L 118.023438 121.53125 C 117.863281 123.976562 115.746094 125.828125 113.308594 125.667969 C 110.863281 125.5 109.015625 123.386719 109.179688 120.9375 Z M 63.136719 121.597656 C 63.859375 128.746094 64.265625 135.992188 72.847656 138.59375 L 121.566406 138.59375 C 130.152344 135.992188 130.558594 128.746094 131.277344 121.597656 C 133.621094 98.28125 138.417969 47.761719 138.417969 45.542969 L 55.996094 45.542969 C 55.996094 47.761719 60.789062 98.28125 63.136719 121.597656 " fill-opacity="1" fill-rule="nonzero"></path></g></svg>