<svg xmlns="http://www.w3.org/2000/svg" xmlns:xlink="http://www.w3.org/1999/xlink" width="260" viewBox="0 0 194.87999 149.999998" height="200" preserveAspectRatio="xMidYMid meet"><defs><clipPath id="3f179db9fa"><path d="M 29.464844 7.027344 L 165.132812 7.027344 L 165.132812 142.691406 L 29.464844 142.691406 Z M 29.464844 7.027344 " clip-rule="nonzero"></path></clipPath></defs><g clip-path="url(#3f179db9fa)"><path fill="#32285b" d="M 165.039062 74.742188 C 165.039062 92.730469 157.902344 109.964844 145.1875 122.683594 C 132.46875 135.398438 115.234375 142.539062 97.246094 142.539062 C 59.808594 142.539062 29.449219 112.191406 29.449219 74.742188 C 29.449219 56.769531 36.601562 39.523438 49.316406 26.8125 C 62.023438 14.09375 79.269531 6.949219 97.25 6.949219 C 115.234375 6.949219 132.46875 14.09375 145.191406 26.8125 C 157.90625 39.519531 165.039062 56.765625 165.039062 74.742188 Z M 165.039062 74.742188 " fill-opacity="1" fill-rule="evenodd"></path></g><path fill="#ffffff" d="M 97.25 22.28125 C 126.277344 22.28125 149.71875 45.714844 149.71875 74.742188 C 149.71875 88.003906 144.824219 100.085938 136.742188 109.304688 L 127.140625 99.703125 C 125.34375 103.085938 123.304688 105.855469 121.1875 108.292969 L 129.25 116.34375 C 126.464844 118.488281 123.433594 120.320312 120.246094 121.878906 C 113.304688 125.269531 105.519531 127.203125 97.25 127.203125 C 68.214844 127.203125 44.789062 103.777344 44.789062 74.738281 C 44.789062 62.683594 48.839844 51.59375 55.644531 42.746094 L 64.558594 51.648438 C 66.15625 47.792969 69.113281 45.933594 72.875 45.433594 L 62.695312 35.253906 C 71.914062 27.183594 83.984375 22.28125 97.25 22.28125 Z M 97.25 12.003906 C 62.660156 12.003906 34.5 40.152344 34.5 74.742188 C 34.5 109.335938 62.65625 137.492188 97.25 137.492188 C 108.355469 137.492188 118.792969 134.574219 127.851562 129.484375 C 130.90625 127.773438 133.804688 125.808594 136.519531 123.625 C 150.820312 112.113281 159.996094 94.480469 159.996094 74.742188 C 159.996094 40.152344 131.839844 12.003906 97.25 12.003906 Z M 97.25 12.003906 " fill-opacity="1" fill-rule="evenodd"></path><path fill="#ffffff" d="M 95.644531 35.949219 C 93.375 35.949219 91.109375 37.3125 91.109375 40.054688 L 91.109375 73.824219 C 91.109375 75.953125 88.804688 75.953125 88.804688 73.824219 L 88.804688 43.535156 C 88.804688 38.0625 79.707031 38.0625 79.707031 43.535156 L 79.707031 73.835938 C 79.707031 75.953125 77.402344 75.953125 77.402344 73.835938 L 77.402344 55.101562 C 77.402344 50.722656 70.148438 50.722656 70.148438 55.039062 L 70.148438 94.792969 C 70.148438 101.394531 72.097656 103.789062 73.789062 106.253906 C 77.785156 112.09375 80.367188 113.488281 84.007812 113.488281 L 102.835938 113.488281 C 108.042969 113.488281 109.679688 112.082031 112.269531 108.890625 C 113.550781 107.304688 115.195312 105.417969 117.191406 103.164062 C 121.605469 98.148438 123.125 94.257812 123.667969 89.550781 C 124.050781 86.308594 122.859375 80.460938 123.667969 76.242188 C 127.726562 63.722656 118.015625 66.3125 115.125 77.652344 L 113.851562 85.550781 C 113.523438 87.566406 113.398438 88.695312 111.878906 89.15625 L 108.363281 90.207031 C 105.265625 91.035156 101.804688 92.023438 99.195312 96.195312 C 97.914062 98.242188 95.273438 97.113281 96.910156 94.449219 C 99.863281 89.652344 104.660156 88.683594 107.792969 87.855469 C 110.882812 87.039062 111.59375 86.824219 111.59375 83.613281 L 111.59375 47.039062 C 111.59375 41.566406 102.507812 41.566406 102.507812 47.039062 L 102.507812 73.816406 C 102.507812 75.953125 100.195312 75.953125 100.195312 73.816406 L 100.195312 40.054688 C 100.191406 37.3125 97.921875 35.949219 95.644531 35.949219 Z M 95.644531 35.949219 " fill-opacity="1" fill-rule="nonzero"></path></svg>